<svg width="26" height="24" viewBox="0 0 26 24" fill="none" xmlns="http://www.w3.org/2000/svg">
<path d="M15.15 7.94994V1.95102C15.15 1.55744 15.343 1.18889 15.6665 0.964716C15.99 0.740541 16.4029 0.689242 16.7714 0.827433L22.7714 3.07743C23.2397 3.25307 23.55 3.70081 23.55 4.20102V22.3499" stroke="#2F3137" stroke-width="1.5" stroke-linecap="round" stroke-linejoin="round"/>
<path d="M11.55 7.94999V4.34999C11.55 3.68725 11.0127 3.14999 10.35 3.14999H5.54998C4.88723 3.14999 4.34998 3.68725 4.34998 4.34999V11.55" stroke="#2F3137" stroke-width="1.5" stroke-linecap="round" stroke-linejoin="round"/>
<path d="M7.94998 0.75V3.15" stroke="#2F3137" stroke-width="1.5" stroke-linecap="round" stroke-linejoin="round"/>
<path d="M1.95001 22.35V12.75C1.95001 12.0873 2.48727 11.55 3.15001 11.55H7.95001" stroke="#2F3137" stroke-width="1.5" stroke-linecap="round" stroke-linejoin="round"/>
<path d="M7.95001 22.35V9.39222C7.95001 8.59571 8.59571 7.95 9.39222 7.95H17.3078C17.6903 7.94999 18.0571 8.10194 18.3276 8.37241C18.5981 8.64288 18.75 9.00971 18.75 9.39222V22.35" stroke="#2F3137" stroke-width="1.5" stroke-linecap="round" stroke-linejoin="round"/>
<path d="M11.55 18.15V12.15" stroke="#2F3137" stroke-width="1.5" stroke-linecap="round" stroke-linejoin="round"/>
<path d="M15.15 18.15V12.15" stroke="#2F3137" stroke-width="1.5" stroke-linecap="round" stroke-linejoin="round"/>
<path d="M24.75 22.35H0.75" stroke="#2F3137" stroke-width="1.5" stroke-linecap="round" stroke-linejoin="round"/>
</svg>
