<svg  viewBox="0 0 17 17" fill="none" xmlns="http://www.w3.org/2000/svg">
<path d="M5.8465 15.4264C3.08106 14.8906 1 12.5623 1 9.77121C1 6.58386 3.71398 4 7.06186 4C9.99028 4 12.4337 5.97701 13 8.60561" stroke="#7b8a9b" stroke-linecap="round"/>
<path d="M11.0281 11.8586C10.8659 11.2072 10.0406 10.6194 9.04995 11.0592C8.05927 11.4989 7.90192 12.9138 9.40043 13.0641C10.0778 13.132 10.5193 12.9852 10.9236 13.4004C11.3279 13.8155 11.403 14.97 10.3695 15.2812C9.33601 15.5923 8.31262 15.1062 8.20117 14.4158M9.68934 10.2867V10.9074M9.68934 15.377V16" stroke="#7b8a9b" stroke-linecap="round" stroke-linejoin="round"/>
<path d="M11.8 6.11331C11.2392 6.1518 10.5209 6.35855 10.0228 6.97245C9.12315 8.08129 8.22345 8.17381 7.62369 7.8042C6.72399 7.24978 7.48005 6.35176 6.42411 5.86373C5.73593 5.54566 5.63997 4.68013 6.02301 4" stroke="#7b8a9b" stroke-linejoin="round"/>
<path d="M1 9.14188C1.4575 9.52015 2.09828 9.86642 2.85324 9.86642C4.41306 9.86642 4.72502 10.1502 4.72502 11.2854C4.72502 12.4205 4.72502 12.4205 5.03699 13.2718C5.23991 13.8256 5.31083 14.3794 4.90636 14.8551" stroke="#7b8a9b" stroke-linejoin="round"/>
<g clip-path="url(#clip0_7201_7619)">
<path d="M13 8C15.2091 8 17 6.20914 17 4C17 1.79086 15.2091 0 13 0C10.7909 0 9 1.79086 9 4C9 6.20914 10.7909 8 13 8Z" fill="#009B3A"/>
<path d="M14.1113 4H13V5.11132H14.1113V4Z" fill="#009B3A"/>
<path d="M9.2168 3.99999L13.0001 6.41581L16.7833 3.99999L13.0001 1.58417L9.2168 3.99999Z" fill="#FEDF00"/>
<path d="M13.0001 5.59534C13.8812 5.59534 14.5955 4.88107 14.5955 3.99998C14.5955 3.1189 13.8812 2.40463 13.0001 2.40463C12.119 2.40463 11.4048 3.1189 11.4048 3.99998C11.4048 4.88107 12.119 5.59534 13.0001 5.59534Z" fill="#002776"/>
<mask id="mask0_7201_7619" style="mask-type:luminance" maskUnits="userSpaceOnUse" x="11" y="2" width="4" height="4">
<path d="M13.0001 5.59534C13.8812 5.59534 14.5955 4.88107 14.5955 3.99998C14.5955 3.1189 13.8812 2.40463 13.0001 2.40463C12.119 2.40463 11.4048 3.1189 11.4048 3.99998C11.4048 4.88107 12.119 5.59534 13.0001 5.59534Z" fill="white"/>
</mask>
<g mask="url(#mask0_7201_7619)">
<path d="M8.21411 7.19068C8.21411 6.16312 8.62231 5.17764 9.3489 4.45105C10.0755 3.72445 11.061 3.31625 12.0885 3.31625C13.1161 3.31625 14.1016 3.72445 14.8282 4.45105C15.5548 5.17764 15.963 6.16312 15.963 7.19068H15.7351C15.7351 6.22356 15.3509 5.29606 14.667 4.6122C13.9832 3.92835 13.0557 3.54416 12.0885 3.54416C11.1214 3.54416 10.1939 3.92835 9.51006 4.6122C8.8262 5.29606 8.44202 6.22356 8.44202 7.19068H8.21411Z" fill="white"/>
</g>
<path fill-rule="evenodd" clip-rule="evenodd" d="M11.6395 3.53364C11.6574 3.53142 11.6737 3.52135 11.6847 3.50565C11.6957 3.48995 11.7004 3.4699 11.698 3.44991C11.6955 3.42993 11.686 3.41164 11.6716 3.39906C11.6571 3.38648 11.6389 3.38065 11.6209 3.38284C11.603 3.38506 11.5867 3.39513 11.5757 3.41083C11.5647 3.42653 11.5599 3.44658 11.5624 3.46656C11.5649 3.48655 11.5743 3.50484 11.5888 3.51742C11.6032 3.53 11.6215 3.53583 11.6395 3.53364ZM11.636 3.50564C11.6466 3.50432 11.6561 3.49808 11.6625 3.48828C11.6688 3.47847 11.6715 3.46591 11.67 3.45335C11.6685 3.44079 11.6628 3.42926 11.6542 3.42129C11.6457 3.41332 11.6349 3.40956 11.6244 3.41084C11.6138 3.41216 11.6043 3.4184 11.5979 3.4282C11.5916 3.43801 11.5888 3.45057 11.5904 3.46313C11.5919 3.47569 11.5976 3.48722 11.6062 3.49519C11.6147 3.50316 11.6255 3.50692 11.636 3.50564Z" fill="#009B3A"/>
<path fill-rule="evenodd" clip-rule="evenodd" d="M11.7633 3.51992L11.7914 3.51795L11.7875 3.46165L11.8481 3.45741C11.8608 3.45653 11.8725 3.45066 11.8808 3.4411C11.8891 3.43155 11.8933 3.41908 11.8924 3.40644C11.8915 3.39381 11.8857 3.38204 11.8761 3.37374C11.8666 3.36543 11.8541 3.36126 11.8415 3.36214L11.7549 3.3682L11.7633 3.51992ZM11.7855 3.4335L11.844 3.42941C11.8492 3.42905 11.854 3.42665 11.8574 3.42274C11.8608 3.41883 11.8625 3.41373 11.8621 3.40856C11.8618 3.4034 11.8594 3.39858 11.8554 3.39518C11.8515 3.39178 11.8464 3.39008 11.8413 3.39044L11.7828 3.39453L11.7855 3.4335Z" fill="#009B3A"/>
<path d="M11.8922 3.51092C11.8907 3.48927 11.8873 3.44163 11.8549 3.4439L11.8137 3.44678C11.8614 3.44345 11.8647 3.49108 11.8662 3.51273" fill="#009B3A"/>
<path fill-rule="evenodd" clip-rule="evenodd" d="M11.9558 3.50794L12.0274 3.50669C12.0447 3.50639 12.0611 3.49924 12.0731 3.48682C12.0851 3.4744 12.0917 3.45772 12.0914 3.44045L12.091 3.41875C12.0908 3.4102 12.089 3.40176 12.0856 3.39392C12.0822 3.38608 12.0773 3.37898 12.0711 3.37304C12.065 3.3671 12.0577 3.36243 12.0497 3.3593C12.0418 3.35616 12.0333 3.35463 12.0247 3.35478L11.9531 3.35603L11.9558 3.50794ZM11.9835 3.47924L12.0247 3.47852C12.0357 3.47833 12.0461 3.4738 12.0537 3.46593C12.0613 3.45806 12.0654 3.4475 12.0652 3.43656L12.065 3.42354C12.0648 3.41261 12.0603 3.40219 12.0524 3.3946C12.0446 3.387 12.034 3.38284 12.0231 3.38303L11.9818 3.38375L11.9835 3.47924Z" fill="#009B3A"/>
<path d="M12.1487 3.50603L12.2853 3.51081L12.2863 3.48261L12.1757 3.47874L12.1771 3.4397L12.2638 3.44273L12.2647 3.4167L12.178 3.41367L12.179 3.3833L12.2832 3.38693L12.2841 3.35873L12.154 3.35419L12.1487 3.50603Z" fill="#009B3A"/>
<path d="M12.3416 3.51424L12.3675 3.51651L12.3766 3.41272L12.3978 3.51916L12.4216 3.52124L12.4609 3.4201L12.4518 3.52389L12.4778 3.52616L12.491 3.3748L12.4532 3.37149L12.4138 3.47263L12.3926 3.3662L12.3548 3.36288L12.3416 3.51424Z" fill="#009B3A"/>
<path d="M12.6562 3.54975L12.7686 3.56905L12.773 3.54337L12.6863 3.52849L12.6922 3.49426L12.7628 3.50639L12.7672 3.48072L12.6966 3.46859L12.7007 3.44506L12.7846 3.45949L12.789 3.43382L12.6794 3.41498L12.6562 3.54975Z" fill="#009B3A"/>
<path fill-rule="evenodd" clip-rule="evenodd" d="M12.9448 3.60642L12.9721 3.61349L12.9863 3.55885L13.0451 3.57407C13.0574 3.57724 13.0704 3.57541 13.0813 3.56898C13.0922 3.56255 13.1001 3.55205 13.1033 3.53979C13.1065 3.52753 13.1046 3.51452 13.0982 3.5036C13.0918 3.49269 13.0813 3.48478 13.069 3.48161L12.985 3.45987L12.9448 3.60642ZM12.9933 3.53153L13.0501 3.54621C13.0551 3.5475 13.0604 3.54676 13.0649 3.54413C13.0693 3.5415 13.0726 3.5372 13.0739 3.53219C13.0752 3.52717 13.0744 3.52184 13.0718 3.51738C13.0692 3.51292 13.0649 3.50968 13.0599 3.50838L13.0031 3.49371L12.9933 3.53153Z" fill="#009B3A"/>
<path fill-rule="evenodd" clip-rule="evenodd" d="M13.1313 3.65614L13.1582 3.66462L13.1752 3.6108L13.2332 3.62907C13.2452 3.63288 13.2583 3.63174 13.2696 3.62589C13.2808 3.62004 13.2892 3.60997 13.2931 3.59789C13.2969 3.58581 13.2957 3.57272 13.2899 3.56148C13.284 3.55025 13.274 3.5418 13.2619 3.53799L13.1791 3.51188L13.1313 3.65614ZM13.1837 3.58389L13.2396 3.60151C13.2445 3.60307 13.2499 3.6026 13.2545 3.60021C13.2591 3.59782 13.2625 3.5937 13.2641 3.58875C13.2656 3.58381 13.2652 3.57846 13.2628 3.57386C13.2604 3.56926 13.2563 3.56581 13.2513 3.56425L13.1954 3.54663L13.1837 3.58389Z" fill="#009B3A"/>
<path d="M13.2546 3.69497C13.2611 3.67427 13.2755 3.62873 13.2444 3.61894L13.2051 3.60654C13.2506 3.6209 13.2363 3.66644 13.2297 3.68714" fill="#009B3A"/>
<path fill-rule="evenodd" clip-rule="evenodd" d="M13.3789 3.7395C13.3959 3.74585 13.415 3.74444 13.432 3.73559C13.449 3.72673 13.4625 3.71116 13.4696 3.69228C13.4766 3.67341 13.4766 3.65279 13.4696 3.63496C13.4626 3.61712 13.4491 3.60353 13.4321 3.59718C13.4152 3.59083 13.3961 3.59224 13.3791 3.60109C13.3621 3.60995 13.3485 3.62552 13.3415 3.6444C13.3344 3.66327 13.3344 3.68389 13.3414 3.70173C13.3485 3.71956 13.3619 3.73315 13.3789 3.7395ZM13.3888 3.71307C13.3988 3.7168 13.4101 3.71566 13.4203 3.70991C13.4305 3.70416 13.4387 3.69427 13.4431 3.6824C13.4476 3.67054 13.4479 3.65768 13.444 3.64666C13.44 3.63563 13.4322 3.62734 13.4223 3.62361C13.4123 3.61988 13.4009 3.62102 13.3908 3.62677C13.3806 3.63252 13.3724 3.64242 13.3679 3.65428C13.3635 3.66614 13.3632 3.679 13.3671 3.69002C13.371 3.70105 13.3788 3.70934 13.3888 3.71307Z" fill="#009B3A"/>
<path fill-rule="evenodd" clip-rule="evenodd" d="M13.5578 3.81177C13.5744 3.819 13.5935 3.8186 13.611 3.81064C13.6284 3.80269 13.6427 3.78784 13.6508 3.76937C13.6588 3.75089 13.6599 3.7303 13.6538 3.71212C13.6478 3.69394 13.635 3.67967 13.6184 3.67244C13.6017 3.6652 13.5826 3.66561 13.5652 3.67356C13.5477 3.68152 13.5334 3.69636 13.5254 3.71484C13.5173 3.73332 13.5162 3.75391 13.5223 3.77209C13.5284 3.79027 13.5412 3.80454 13.5578 3.81177ZM13.569 3.7859C13.5788 3.79014 13.5902 3.7896 13.6006 3.78439C13.6111 3.77918 13.6198 3.76973 13.6249 3.75812C13.6299 3.7465 13.6309 3.73368 13.6276 3.72246C13.6242 3.71125 13.6169 3.70256 13.6071 3.69831C13.5973 3.69407 13.586 3.69461 13.5755 3.69982C13.565 3.70503 13.5563 3.71448 13.5512 3.72609C13.5462 3.73771 13.5452 3.75053 13.5486 3.76175C13.5519 3.77296 13.5593 3.78165 13.569 3.7859Z" fill="#009B3A"/>
<path d="M13.6509 3.76937L13.5981 3.74643L13.5895 3.76633L13.6422 3.78927L13.6509 3.76937Z" fill="#009B3A"/>
<path d="M13.6508 3.76937L13.6309 3.76071L13.6006 3.83038L13.6205 3.83903L13.6508 3.76937Z" fill="#009B3A"/>
<path fill-rule="evenodd" clip-rule="evenodd" d="M13.6712 3.86278L13.6965 3.87537L13.7217 3.82487L13.776 3.85198C13.7874 3.85764 13.8005 3.85855 13.8125 3.85453C13.8245 3.85052 13.8344 3.84189 13.8401 3.83056C13.8457 3.81922 13.8467 3.80611 13.8426 3.7941C13.8386 3.78209 13.83 3.77217 13.8187 3.76651L13.741 3.72778L13.6712 3.86278ZM13.7342 3.79961L13.7867 3.82576C13.7913 3.82808 13.7967 3.82845 13.8016 3.82681C13.8065 3.82516 13.8106 3.82163 13.8129 3.817C13.8152 3.81236 13.8156 3.807 13.8139 3.80208C13.8123 3.79717 13.8088 3.79311 13.8041 3.7908L13.7517 3.76465L13.7342 3.79961Z" fill="#009B3A"/>
<path d="M13.7868 3.92041C13.7964 3.90098 13.8178 3.85825 13.7886 3.84372L13.7517 3.82532C13.7944 3.84662 13.7731 3.88936 13.7635 3.90878" fill="#009B3A"/>
<path d="M13.8433 3.95017L13.9623 4.01751L13.9762 3.99295L13.8798 3.93844L13.8991 3.90443L13.9746 3.94719L13.9875 3.92452L13.9119 3.88177L13.9269 3.85532L14.0175 3.90662L14.0314 3.88206L13.9181 3.81793L13.8433 3.95017Z" fill="#009B3A"/>
<path d="M14.065 4.02454C14.0569 4.03736 14.0651 4.05164 14.0834 4.0633C14.1018 4.07496 14.1142 4.07454 14.1195 4.06631C14.1361 4.04023 14.04 4.00218 14.0696 3.95671C14.0952 3.91764 14.1389 3.94804 14.1553 3.95854C14.1718 3.96904 14.1983 3.99618 14.1777 4.02747L14.1498 4.00969C14.1585 3.99596 14.1489 3.98276 14.1343 3.97343C14.1201 3.96439 14.1086 3.96026 14.1001 3.97354C14.0859 3.99476 14.1801 4.0348 14.1512 4.08011C14.13 4.11351 14.0929 4.09893 14.0682 4.08319C14.0472 4.06977 14.0157 4.03815 14.0362 4.00618L14.065 4.02454Z" fill="#009B3A"/>
<path d="M14.2281 4.13233C14.2192 4.1447 14.2267 4.15939 14.2444 4.172C14.2621 4.1846 14.2746 4.18483 14.2802 4.17689C14.2982 4.15171 14.2043 4.10869 14.2362 4.06483C14.2637 4.02715 14.3058 4.0598 14.3217 4.07114C14.3376 4.08249 14.3626 4.11098 14.3404 4.14115L14.3135 4.12193C14.3229 4.10867 14.314 4.09499 14.2999 4.08491C14.2862 4.07514 14.2749 4.07042 14.2657 4.08323C14.2505 4.10368 14.3424 4.14859 14.3112 4.19233C14.2882 4.22458 14.252 4.20807 14.2282 4.19106C14.2078 4.17656 14.1781 4.14334 14.2002 4.11248L14.2281 4.13233Z" fill="#009B3A"/>
<path fill-rule="evenodd" clip-rule="evenodd" d="M14.382 4.30716C14.3962 4.31844 14.4148 4.323 14.4337 4.31984C14.4526 4.31667 14.4703 4.30603 14.4828 4.29026C14.4954 4.2745 14.5018 4.25489 14.5006 4.23576C14.4994 4.21663 14.4908 4.19954 14.4766 4.18825C14.4624 4.17697 14.4438 4.17241 14.4249 4.17557C14.406 4.17874 14.3884 4.18938 14.3758 4.20515C14.3633 4.22091 14.3569 4.24052 14.358 4.25965C14.3592 4.27878 14.3678 4.29587 14.382 4.30716ZM14.3996 4.28508C14.4079 4.29168 14.419 4.29408 14.4305 4.29175C14.442 4.28942 14.4528 4.28256 14.4607 4.27266C14.4686 4.26276 14.4728 4.25063 14.4725 4.23895C14.4722 4.22727 14.4674 4.21697 14.459 4.21033C14.4507 4.20373 14.4396 4.20133 14.4281 4.20366C14.4167 4.20599 14.4058 4.21285 14.3979 4.22275C14.3901 4.23265 14.3858 4.24478 14.3861 4.25646C14.3864 4.26814 14.3913 4.27844 14.3996 4.28508Z" fill="#009B3A"/>
</g>
<defs>
<clipPath id="clip0_7201_7619">
<rect width="8" height="8" fill="white" transform="translate(9)"/>
</clipPath>
</defs>
</svg>
